# xmcd CD database file
#
# Track frame offsets:
#	150
#	19750
#	37608
#	52073
#	67656
#	84578
#	101321
#	118487
#	133992
#	153155
#	171082
#	191420
#	209217
#	231076
#
# Disc length: 3328 seconds
#
# Revision: 4
# Processed by: cddbd v1.5PL3 Copyright (c) Steve Scherf et al.
# Submitted via: CDex 1.51
#
DISCID=ba0cfe0e
DTITLE=Shaggy - Mr. Lover Lover (The best of.. Part 1)
DYEAR=2002
DGENRE=Reggae
TTITLE0=Boombastic ( Sting Remix)
TTITLE1=In the summertime (feat, Rayvon)
TTITLE2=Oh Carolina
TTITLE3=Luv Me Luv Me (feat, Janet Jackson)
TTITLE4=Nice and Lovely
TTITLE5=The train is coming
TTITLE6=Why you treat me so bad
TTITLE7=Big Up (feat, Rayvon)
TTITLE8=Piece of my heart
TTITLE9=Sexy body girl
TTITLE10=Something different
TTITLE11=That girl Maxi Priest (Feat, Shaggy and Rayvon)
TTITLE12=Get Up, Stand Up
TTITLE13=Boombastic
EXTD=The best of Shaggy ... part 1 YEAR: 2002
EXTT0=
EXTT1=Shaggy feat . Rayvon
EXTT2=
EXTT3=Shaggy feat. Janet Jackson
EXTT4=
EXTT5=
EXTT6=
EXTT7=Shaggy feat, Rayvon
EXTT8=
EXTT9=
EXTT10=
EXTT11=
EXTT12=
EXTT13=
PLAYORDER=
